#!OML:ASF I:\Random Stuff\random\construction\7_22_03\Session 2\subj1.ASF
:FULLY-SPECIFIED
:DEGREES
862
root 5.80568 17.7603 -10.1008 -6.38704 -58.547 9.98116
lowerback 7.55822 -1.28064 3.80852
upperback 0.676284 -1.29356 4.20741
thorax -3.52669 -0.698274 2.36174
lowerneck -17.9191 -7.86007 -8.41312
upperneck 34.097 -14.0911 10.7673
head 16.8499 -5.7615 3.26236
rclavicle -2.98177e-014 1.59028e-014
rhumerus -26.4185 18.4326 -79.6881
rradius 73.5631
rwrist -18.1336
rhand -28.0067 38.4627
rfingers 7.12502
rthumb -1.3924 8.48751
lclavicle -2.98177e-014 1.59028e-014
lhumerus -31.8147 -31.1095 99.6302
lradius 100.647
lwrist 2.72922
lhand -10.6043 48.4858
lfingers 7.12502
lthumb 15.4016 797.892
rfemur -4.52696 13.8133 21.7776
rtibia 9.44622
rfoot -6.53165 -29.9698
rtoes 7.26757
lfemur -15.7446 2.91732 -14.3926
ltibia 23.6456
lfoot -1.3304 10.6298
ltoes -13.561
863
root 5.81707 17.7615 -10.1216 -6.67931 -58.6107 10.2691
lowerback 7.82238 -1.12878 3.74044
upperback 0.802661 -1.08744 4.26028
thorax -3.5433 -0.595477 2.43767
lowerneck -17.5931 -7.90515 -8.56939
upperneck 34.1148 -14.2031 10.9184
head 16.8301 -5.82261 3.34395
rclavicle -3.97569e-015 -3.49861e-014
rhumerus -25.8993 17.1654 -79.1535
rradius 72.1334
rwrist -18.066
rhand -28.9926 38.7926
rfingers 7.12502
rthumb -2.3446 8.82575
lclavicle -3.97569e-015 -3.49861e-014
lhumerus -32.5745 -30.4645 99.8501
lradius 98.6689
lwrist 3.66695
lhand -9.9142 47.8521
lfingers 7.12502
lthumb 16.0663 797.206
rfemur -4.7057 14.2947 21.623
rtibia 9.73296
rfoot -6.58047 -30.392
rtoes 7.38982
lfemur -15.7819 3.89823 -14.6784
ltibia 24.2698
lfoot -2.63826 10.3118
ltoes -14.2324
864
root 5.8342 17.7597 -10.1378 -6.96068 -58.7717 10.6495
lowerback 8.03963 -0.961625 3.68421
upperback 0.90701 -0.862155 4.30698
thorax -3.55788 -0.483439 2.49674
lowerneck -17.2203 -7.95368 -8.7632
upperneck 33.9958 -14.2892 11.095
head 16.7308 -5.87838 3.44613
rclavicle -3.89618e-014 3.49861e-014
rhumerus -25.3309 15.9458 -78.6594
rradius 70.7571
rwrist -18.074
rhand -29.8689 39.245
rfingers 7.12502
rthumb -3.19083 9.2891
lclavicle -3.89618e-014 3.49861e-014
lhumerus -33.3227 -29.9157 100.226
lradius 96.6028
lwrist 4.94851
lhand -10.832 49.3019
lfingers 7.12502
lthumb 15.1824 798.725
rfemur -5.08596 14.8752 21.3276
rtibia 10.0862
rfoot -6.54189 -30.8067
rtoes 7.20858
lfemur -15.8651 4.99545 -15.0594
ltibia 24.8994
lfoot -3.62452 10.1384
ltoes -15.1916
865
root 5.85246 17.765 -10.1492 -7.09235 -58.7242 10.9656
lowerback 8.12038 -0.847984 3.75597
upperback 0.977894 -0.704471 4.30739
thorax -3.53254 -0.406306 2.4399
lowerneck -16.9422 -8.04758 -8.9035
upperneck 33.9421 -14.4613 11.2417
head 16.6939 -5.96079 3.50581
rclavicle 4.77083e-014 -3.18055e-014
rhumerus -24.7845 14.6148 -78.2109
rradius 69.4385
rwrist -17.9095
rhand -30.6257 39.6275
rfingers 7.12502
rthumb -3.92174 9.68381
lclavicle 4.77083e-014 -3.18055e-014
lhumerus -34.0916 -29.4239 100.545
lradius 94.4555
lwrist 5.91123
lhand -11.8075 51.8304
lfingers 7.12502
lthumb 14.2425 801.322
rfemur -5.54441 15.0206 21.0485
rtibia 10.502
rfoot -6.90565 -30.991
rtoes 7.90513
lfemur -16.0699 5.86149 -15.4471
ltibia 25.5439
lfoot -4.5786 10.0918
ltoes -15.1019
866
root 5.86973 17.7756 -10.159 -7.0476 -58.4303 11.1555
lowerback 8.02901 -0.836104 3.85421
upperback 1.06783 -0.692069 4.33981
thorax -3.38877 -0.400656 2.41366
lowerneck -16.8027 -8.06372 -8.93873
upperneck 33.9297 -14.4931 11.2747
head 16.666 -5.97845 3.52481
rclavicle 5.48646e-014 2.8625e-014
rhumerus -24.2422 13.4882 -77.7619
rradius 68.2307
rwrist -17.8425
rhand -31.4012 40.1703
rfingers 7.12502
rthumb -4.67058 10.2418
lclavicle 5.48646e-014 2.8625e-014
lhumerus -34.7884 -28.8335 100.639
lradius 92.356
lwrist 6.25686
lhand -12.9702 54.0757
lfingers 7.12502
lthumb 13.122 803.643
rfemur -5.98622 15.4476 20.778
rtibia 10.8507
rfoot -7.36907 -31.6801
rtoes 9.12296
lfemur -16.4039 6.45703 -15.7885
ltibia 26.244
lfoot -5.44982 10.0675
ltoes -14.4826
867
root 5.88409 17.7814 -10.1705 -7.00197 -58.2106 11.277
lowerback 7.95384 -0.818275 3.88017
upperback 1.20666 -0.679793 4.44567
thorax -3.20153 -0.394153 2.5043
lowerneck -16.7792 -8.01502 -8.95691
upperneck 33.9596 -14.3669 11.174
head 16.6446 -5.93858 3.51377
rclavicle -3.06128e-014 -2.22639e-014
rhumerus -23.6947 12.577 -77.269
rradius 67.1287
rwrist -17.9579
rhand -32.0413 40.8273
rfingers 7.12502
rthumb -5.28861 10.9133
lclavicle -3.06128e-014 -2.22639e-014
lhumerus -35.2947 -28.1346 100.679
lradius 90.0696
lwrist 6.51733
lhand -12.7059 50.8047
lfingers 7.12502
lthumb 13.3766 800.355
rfemur -6.26183 15.7828 20.6047
rtibia 11.0119
rfoot -7.4833 -32.3031
rtoes 9.25271
lfemur -16.6692 7.11852 -16.035
ltibia 27.0169
lfoot -6.23434 9.91366
ltoes -14.2073
868
root 5.89526 17.7821 -10.1822 -7.01282 -58.1203 11.3647
lowerback 8.08254 -0.729295 3.97441
upperback 1.27774 -0.549398 4.50036
thorax -3.20165 -0.331104 2.49607
lowerneck -16.772 -8.02132 -8.98537
upperneck 34.1578 -14.3769 11.0971
head 16.7404 -5.95162 3.49032
rclavicle 1.27222e-014 1.27222e-014
rhumerus -23.3038 11.439 -76.844
rradius 66.107
rwrist -18.027
rhand -32.2605 41.402
rfingers 7.12502
rthumb -5.50028 11.4934
lclavicle 1.27222e-014 1.27222e-014
lhumerus -35.8464 -27.5499 100.783
lradius 87.745
lwrist 6.86848
lhand -12.6655 51.0245
lfingers 7.12502
lthumb 13.4156 800.573
rfemur -6.37277 15.9807 20.5252
rtibia 11.0418
rfoot -7.31912 -32.7105
rtoes 8.53502
lfemur -16.8021 7.9152 -16.1924
ltibia 27.8232
lfoot -7.10792 9.55344
ltoes -13.3935
869
root 5.90559 17.7816 -10.1948 -7.11559 -57.9628 11.4966
lowerback 8.39233 -0.639515 4.13036
upperback 1.26669 -0.394431 4.46853
thorax -3.38942 -0.257775 2.36426
lowerneck -16.6579 -8.03593 -8.99952
upperneck 34.2967 -14.462 11.1562
head 16.8074 -5.98369 3.51017
rclavicle -2.90226e-014 2.8625e-014
rhumerus -23.1345 10.1616 -76.4975
rradius 65.129
rwrist -17.8491
rhand -32.5823 42.3538
rfingers 7.12502
rthumb -5.81093 12.4535
lclavicle -2.90226e-014 2.8625e-014
lhumerus -36.427 -26.9911 100.825
lradius 85.3556
lwrist 7.31601
lhand -12.1062 52.2456
lfingers 7.12502
lthumb 13.9547 801.757
rfemur -6.401 16.3852 20.4237
rtibia 11.0681
rfoot -7.37316 -33.1934
rtoes 9.19027
lfemur -16.8706 8.65047 -16.3681
ltibia 28.5818
lfoot -7.94565 9.09256
ltoes -13.4695
870
root 5.91834 17.7854 -10.2076 -7.23769 -57.7004 11.6641
lowerback 8.70025 -0.599216 4.2633
upperback 1.26069 -0.3066 4.44352
thorax -3.56924 -0.217729 2.25894
lowerneck -16.6326 -8.02267 -9.00503
upperneck 34.4502 -14.4868 11.1844
head 16.8903 -5.98884 3.5258
rclavicle -7.67309e-014 -3.18055e-015
rhumerus -23.0299 9.08156 -76.1239
rradius 64.2342
rwrist -17.5105
rhand -32.9578 43.2696
rfingers 7.12502
rthumb -6.17352 13.3795
lclavicle -7.67309e-014 -3.18055e-015
lhumerus -36.8498 -26.3585 100.809
lradius 82.8735
lwrist 8.07859
lhand -11.8434 53.4253
lfingers 7.12502
lthumb 14.2079 802.919
rfemur -6.46666 16.9383 20.2516
rtibia 11.1576
rfoot -7.62739 -33.8641
rtoes 10.488
lfemur -16.935 9.06381 -16.5854
ltibia 29.2226
lfoot -8.63184 8.80225
ltoes -14.1869
871
root 5.92927 17.7944 -10.2175 -7.33475 -57.4743 11.9246
lowerback 8.80181 -0.566966 4.26636
upperback 1.28555 -0.25731 4.46452
thorax -3.60032 -0.193688 2.27471
lowerneck -16.6672 -7.97754 -9.01449
upperneck 34.61 -14.4149 11.1232
head 16.9649 -5.96258 3.52154
rclavicle 9.42239e-014 0
rhumerus -22.8688 8.32772 -75.7441
rradius 63.4555
rwrist -17.4936
rhand -32.8703 43.5186
rfingers 7.12502
rthumb -6.089 13.6261
lclavicle 9.42239e-014 0
lhumerus -37.1488 -25.5673 100.737
lradius 80.4345
lwrist 8.90408
lhand -12.2432 53.7469
lfingers 7.12502
lthumb 13.8226 803.268
rfemur -6.68457 17.3427 19.986
rtibia 11.3136
rfoot -7.87563 -34.3984
rtoes 11.2934
lfemur -17.0247 9.37192 -16.8496
ltibia 29.715
lfoot -9.22804 8.54915
ltoes -14.3416
